<?xml version="1.0" encoding="UTF-8"?>
<svg id="_图层_2" data-name="图层 2" xmlns="http://www.w3.org/2000/svg" viewBox="0 0 1648.81 792.29">
  <defs>
    <style>
      .cls-1 {
        fill: #b87ebe;
      }

      .cls-1, .cls-2, .cls-3, .cls-4, .cls-5, .cls-6, .cls-7 {
        stroke-width: 0px;
      }

      .cls-2 {
        fill: #7d4783;
      }

      .cls-3 {
        fill: #401f43;
      }

      .cls-4 {
        fill: none;
      }

      .cls-5 {
        fill: #ca9ece;
      }

      .cls-6 {
        fill: #a65eae;
      }

      .cls-7 {
        fill: #da91b4;
      }
    </style>
  </defs>
  <g id="_图层_1-2" data-name="图层 1">
    <g>
      <path class="cls-3" d="m1641.19,318.34c6.49-9.48,8.99-21.32,6.89-32.6l-1.31-7.28c-.06-.31-.11-.62-.18-.93-4.13-20.23-22.06-34.92-42.64-34.92-1.76,0-3.53.11-5.29.33-2.4-8.65-7.42-16.44-14.35-22.15-7.79-6.42-17.66-9.96-27.79-9.96-2.96,0-5.93.3-8.83.89l-8.5,1.74c-6.1,1.25-11.64,3.72-16.42,7.1-7.48-15.01-22.81-24.59-39.67-24.59-6.09,0-12,1.24-17.58,3.68l-3.47,1.52-1.7-3.87c-7.1-16.23-23.09-26.72-40.73-26.72-6.2,0-12.24,1.27-17.95,3.77l-9.54,4.17c-7.22,3.16-13.48,8.29-18.1,14.66l.44-2.44c3.16-17.38-.54-34.32-10.69-49-10.18-14.7-24.67-24.11-41.92-27.25l-51.69-9.41c-.81-.15-1.62-.27-2.43-.39-.07-.44-.12-.88-.2-1.32,2.18-1.82,4.22-3.87,6.11-6.13.15-.18.3-.37.45-.55l9.61-11.95c7-8.56,10.7-18.55,10.7-28.93,0-14.95-7.92-29.01-20.79-37.15l-.06-.04c-.43-.29-.87-.56-1.31-.83l-14.17-8.67c-7.56-4.78-16.52-7.4-25.36-7.4-8.23,0-16.14,2.19-23,6.24-1.29-.11-2.58-.17-3.88-.17-.99,0-3.08,0-5.88.37-7.43-5.15-16.47-8.17-26.21-8.17h-49.21c-11.66,0-22.82,4.49-31.41,12.63-8.39,7.96-13.46,18.83-14.15,30.15-26.18,1.33-47.47,20.88-50.15,46.55l-4.16,38.23c-4.47.42-8.06,1.46-10.55,2.28-1.7.57-3.37,1.25-4.98,2.04-5.8,2.85-12.28,6.06-19.14,9.46-29.2,14.47-67.44,33.43-99.57,47.15-.4-.76-.83-1.52-1.29-2.28,11.72-20.95,18.62-41.79,18.62-57.93,0-.62,0-1.23-.03-1.84l7.57-6.61c.68-.59,1.34-1.21,1.98-1.85,11.48-11.48,13.88-23.84,13.88-32.19,0-13.05-5.88-25.44-16.13-33.98-.32-.27-.65-.53-.98-.79l-10.87-9.93c-1.18-1.08-2.43-2.09-3.73-3.02-8.73-6.24-18.16-9.4-28.02-9.4-5.53,0-10.88.96-15.89,2.83-3.74-1-7.64-1.52-11.65-1.52h-.65c-1.64,0-3.27.1-4.89.3l-15.83,1.95c-.76.09-1.51.21-2.26.34-8.05,1.46-15.14,4.65-21.06,9.48-3.28,2.67-6.11,5.77-8.43,9.2-7.42-5.35-15.9-8.05-25.36-8.05-10.46,0-20.52,3.63-29.11,10.5-.21.17-.42.34-.62.51-17.87,14.9-35.41,26.35-49.38,32.26-.78.33-1.55.68-2.3,1.06-1.95.97-3.8,2.06-5.55,3.24-4.13-9.8-11-18.42-20.18-24.96-10.42-7.43-23.29-11.85-36.23-12.45l-31.85-1.53c-4.74-19.91-22.25-34.29-43.72-34.29h-.65c-.7,0-1.41.02-2.11.06l-40.97,2.17c-.13,0-.25.01-.38.02-12.11.76-23.08,5.91-30.9,14.51-3.06,3.37-6.46,8.15-8.78,14.49-3.8,1.28-7.42,3.06-10.75,5.32-11.44,7.75-18.44,20.46-18.92,34.22l-1.71,34.9c-.03.65-.05,1.31-.05,1.96v.43c0,.55.01,1.11.03,1.66-1.82-.23-3.65-.36-5.47-.36h0c-.15,0-.31,0-.46,0-2.33-1.11-4.78-2.02-7.33-2.71l-.45-.12c-1.61-.44-3.24-.77-4.9-1l-11.34-1.6c-.77-.11-1.54-.19-2.31-.26-1.34-.11-2.67-.16-3.97-.16h0c-5.27,0-10.33.91-15.01,2.6-5.55-3.53-9.31-4.55-11.74-5.21-3.75-1.02-7.63-1.53-11.55-1.53h0c-9.59,0-17.01,3.19-19.45,4.23-.29.12-.57.25-.86.38l-20.67,9.45c-6.24,2.77-11.6,6.94-15.73,12.13l-13.34,1.89c-3.91.49-7.67,1.54-11.19,3.05l-4.59-17.7c-6.53-25.19-29.26-42.79-55.28-42.79h0c-4.83,0-9.65.62-14.34,1.83l-57.46,14.9c-7.72,2-14.66,5.5-20.6,10.1-2.81-.43-5.67-.66-8.58-.66h0c-4.82,0-9.64.62-14.31,1.83l-57.68,14.95c-14.74,3.82-27.11,13.15-34.83,26.28C.17,169.93-1.97,185.27,1.85,200.01l14.95,57.68c1.99,7.67,5.49,14.63,10.12,20.61-1.14,7.44-.83,15.22,1.17,22.96l14.86,57.31c6.37,24.57,28.12,41.91,53.32,42.81,13.03,75.21,23.22,150.71,22.53,185-.24,5.02-9.67,12.33-23.45,15.29-3.11.67-4.79,1.02-6.17,1.14-1.66.14-3.3.39-4.93.74l-1.91.41c-24.01,5.16-42.37,26.05-44.63,50.8-.02.22-.04.45-.06.67l-3.83,51.41c-.67,7.51.6,13.43,1.3,16.67,4.79,22.28,20.57,38.57,41.27,42.65,13.96,2.9,28.81,4.37,44.15,4.37,17.08,0,34.22-1.82,50.93-5.41,42.38-9.1,78.8-28.78,105.34-56.9,3.27-3.46,6.37-7.06,9.32-10.76v15.32c0,28.08,22.84,50.92,50.92,50.92h100.6c28.08,0,50.92-22.84,50.92-50.92v-21.2c6.34,3.19,13.33,5.12,20.6,5.49,5.94.52,11.13.52,15.75.52,48.13,0,97.55-13.84,135.61-37.97,8.5-5.39,16.31-11.21,23.42-17.41l5.35,101.7c.02.41.05.82.08,1.22,2.2,26.44,24.31,47.14,50.33,47.14h.91c.68,0,1.37-.02,2.05-.05l88.43-4.53c2.17-.09,4.14-.34,5.89-.67l114.72-6.18c.23-.01.47-.03.71-.04,26.95-1.93,48.07-24.65,48.07-51.73,0-.54-.01-1.07-.03-1.61l-1.3-32.41c2.18.75,4.43,1.41,6.77,1.98,1.24.3,2.5.54,3.77.72l.85.12c.59.08,1.39.2,1.76.26.91.22,1.84.41,2.77.57,15.27,2.6,30.67,3.92,45.79,3.92,40.02,0,77.71-9.39,108.51-26.76l-5.19,34.04c-.06.4-.12.81-.17,1.22-2.9,23.9,13.07,46.39,36.36,51.21l.52.11c.67.14,1.34.26,2.02.36l51.14,7.86c1.44.23,2.9.38,4.36.45l65.38,9.88c.23.04.46.07.7.1,2.05.27,4.13.41,6.19.41,22.12,0,41.43-15.74,45.91-37.44.11-.53.21-1.05.29-1.58l7.47-45.22c2.85-15.8-2.82-31.3-13.81-41.69l7.52-34.12c.04-.17.07-.35.11-.52l.11-.52c.43-2.08.71-4.17.84-6.27,1.34-.91,2.62-1.89,3.86-2.93l25.42,52.43c.32.67.67,1.33,1.03,1.97,8.73,15.72,27.17,25.88,46.97,25.88h40.47c13.81,0,27.99-5.47,37.31-14.34,14.29-13.43,28.12-33.1,42.27-60.12,10.45-19.95,20.97-43.78,31.28-70.83,9.75-25.58,16.98-47.86,21.32-62.05,9.43-30.8,9.43-35.87,9.43-40.34,0-11.19-3.59-21.64-10.37-30.22-6.03-7.62-14.41-13.38-24.24-16.66-.09-.03-.18-.06-.28-.09l-31.46-10.23c.81-.12,1.62-.25,2.42-.42.27-.06.55-.11.82-.18l8.27-1.87c22.39-4.91,37.13-26.24,34.03-48.62,9.61-2.87,17.88-8.87,23.59-17.2Z"/>
      <g>
        <g>
          <rect class="cls-5" x="147.61" y="134.07" width="93.6" height="93.6" rx="17.12" ry="17.12" transform="translate(427.98 307.17) rotate(165.47)"/>
          <rect class="cls-5" x="46.55" y="160.27" width="93.6" height="93.6" rx="17.01" ry="17.01" transform="translate(235.67 384.09) rotate(165.47)"/>
          <rect class="cls-5" x="72.74" y="261.33" width="93.6" height="93.6" rx="17.2" ry="17.2" transform="translate(312.59 576.4) rotate(165.47)"/>
        </g>
        <path class="cls-2" d="m305.01,223.6c-1.52.25-2.5.31-3.25.1-1.35-.37-1.55-1.41-2.12-2.88-9.59-30.06-9.97-32.79-9.52-34.48.25-.92.76-1.6,1.74-1.66l23.48-3.33c1.18-.17,2.46-.15,3.51.13s2.02.88,2.86,1.93c4.27,6.25,15.87,26.5,14.04,33.24-.33,1.23-1.22,2.13-2.93,2.49l-27.81,4.46Zm105.84,30.68c.03.5.09.85-.03,1.31-.29,1.07-1.18,1.98-2.44,2.46-32.78,14.45-67.48,22.3-99.78,23.08-.49.03-.98.06-1.43-.06-1.05-.29-1.94-1.18-2.25-2.42l-7.29-29.6c-.18-.54-.2-1.04-.08-1.5.33-1.23,1.33-1.94,2.55-2.27,26.11-2.95,78.85-12.48,100.71-19.38.49-.03.98-.06,1.43.06,1.05.29,1.94,1.18,2.25,2.42l6.36,25.89Zm-55.59-53.05c-1.88.97-2.9,1.19-3.65.98-.9-.24-1.49-1.06-2.18-2.07-17.99-26.42-19.02-29.16-18.48-31.15.17-.61.48-1.18,1.21-1.48l20.99-9.6c1.64-.71,3.24-1.26,4.75-.85,3.3.9,26.16,23.04,24.29,29.93-.21.77-.91,1.56-2.02,2.08l-24.9,12.15Zm40.74-20.02l-1.05-.29c-2.1-.57-2.95-1.62-2.98-3.27l.04-12.65c.06-.81.03-1.31.2-1.92.5-1.84,1.87-2.12,3.6-1.98l11.34,1.6.45.12c2.1.57,3.11,2.82,3.06,4.78l-.56,12.18c.03.5-.1.96-.22,1.42-.46,1.68-1.76,2.32-4.39,1.93l-9.48-1.91Zm28.81,9.13c-.92.41-1.75.51-2.35.35-1.05-.29-1.79-1.14-2.33-2.11l-6.75-13.17c-.54-.97-.64-1.82-.47-2.43.29-1.07,1.55-1.55,2.28-1.85l9.28-3.89c.92-.41,1.71-.36,2.46-.15,1.2.33,2.09,1.22,2.93,2.27l6.51,10.48.37.43c.69,1.01.79,1.86.58,2.62-.25.92-1.1,1.67-2.25,2.35l-10.25,5.11Z"/>
        <path class="cls-2" d="m546.1,228.37c-1.73,0-3.25.22-4.77.22-29.05,0-35.77-15.61-36.64-36.42l-2.17-60.7-27.53-.65c-2.17-.22-3.69-2.82-3.69-5.2v-.43l1.73-35.34c0-2.38,2.17-3.47,4.55-3.47h.65l22.55,1.08-.87-22.33c0-3.47,1.52-5.2,4.99-5.42l40.97-2.17h.65c3.04,0,4.99,1.73,4.99,5.2.43,8.02.65,17.34.87,27.32l67.86,3.25c9.32.43,22.76,6.5,22.76,19.73,0,3.9-4.55,32.74-22.76,56.37-1.08,1.52-3.25,2.17-5.2,2.17s-26.02-7.8-31.44-10.19c-2.6-1.3-3.47-3.04-3.47-4.99,0-.65.22-1.52.43-2.38,1.95-7.15,3.04-16.26,3.04-16.48,0-2.38-1.08-3.69-4.34-3.9l-25.37-.65,1.3,44.44c.22,5.42,3.69,6.29,6.5,6.29h1.08l44.01-2.38h.65c3.04,0,6.07,1.52,6.29,6.29l1.52,27.97v1.73c0,4.77-1.73,7.8-8.24,8.02l-60.92,3.04Z"/>
        <path class="cls-2" d="m830.51,239.06c-2.17,2.6-3.69,3.47-5.2,3.47-1.08,0-1.95-.65-3.25-1.52-3.25-1.73-10.62-6.94-19.73-13.22-30.13,25.58-56.58,38.16-58.97,38.16-2.17,0-5.64-1.08-8.46-3.9l-18.86-19.08c-1.08-1.08-1.52-2.17-1.52-3.25,0-1.3,1.08-3.04,3.47-4.55,14.09-8.89,29.92-21.68,44.44-35.55l-21.68-15.39c-2.38-1.52-4.34-3.69-4.34-5.64,0-.65.22-1.3.87-1.95l16.69-17.78c1.73-1.95,3.25-2.82,5.42-2.82,4.77,0,20.16,6.94,32.52,12.57,10.41-12.36,13.66-16.48,13.66-19.51,0-1.95-1.52-3.47-4.34-3.69l-30.79-2.38c-5.42,2.82-36.86,19.51-45.96,19.51-1.95,0-3.69-.65-4.99-2.6l-19.08-29.05c-1.08-1.52-1.3-2.82-1.3-3.69,0-1.95,1.08-3.04,2.82-3.9,22.55-9.54,45.09-26.45,59.4-38.37,1.08-.87,2.6-1.73,4.12-1.73,2.38,0,2.82.22,14.74,17.56l66.77,5.42c9.11.65,20.81,8.67,20.81,22.11,0,11.49-9.54,37.72-31.22,64.39,14.53,8.67,19.29,13.44,19.29,17.13,0,1.08-.43,1.95-1.3,3.04l-24.06,26.23Zm4.55-140.7h-1.52c-3.04,0-4.55-1.08-5.2-3.25l-4.55-16.69c-.22-1.08-.43-1.73-.43-2.6,0-2.6,1.73-3.47,4.12-3.9l15.83-1.95h.65c3.04,0,5.2,2.6,5.85,5.2l3.69,16.26c.22.65.22,1.3.22,1.95,0,2.38-1.52,3.69-5.2,4.12l-13.44.87Zm42.06,1.73c-1.08.87-2.17,1.3-3.04,1.3-1.52,0-2.82-.87-3.9-1.95l-13.88-14.96c-1.08-1.08-1.52-2.17-1.52-3.04,0-1.52,1.52-2.6,2.38-3.25l11.06-8.46c1.08-.87,2.17-1.08,3.25-1.08,1.73,0,3.25.87,4.77,1.95l12.57,11.49.65.43c1.3,1.08,1.73,2.17,1.73,3.25,0,1.3-.87,2.6-2.17,3.9l-11.92,10.41Z"/>
        <path class="cls-2" d="m965.02,353.8c-2.38,0-4.34-1.73-4.34-4.12v-92.36c-32.3,11.71-55.93,16.69-58.54,16.69-1.95,0-3.69-.87-4.34-2.82l-12.79-32.52c-.22-.65-.43-1.08-.43-1.73,0-1.73,1.08-3.25,2.6-3.9,43.58-16.91,104.28-47.91,139.62-65.26.65-.22,1.3-.43,1.95-.43,2.17,0,4.77,1.08,5.64,2.6l22.76,38.37c.22.43.43,1.08.43,1.73,0,1.95-1.08,4.12-2.82,5.2-17.13,9.97-45.53,23.2-74.79,34.69h28.62c2.38,0,4.12,1.95,4.12,4.34v95.39c0,2.38-1.73,4.12-4.12,4.12h-43.58Z"/>
        <path class="cls-2" d="m1118.94,226.66c-2.17-.87-3.9-1.95-3.9-3.9,0-.87.43-1.73,1.3-3.04,27.1-36.64,48.78-84.33,48.78-88.45,0-2.38-1.52-3.47-4.34-3.69l-36.86-2.82h-1.52c-3.47,0-4.34,1.52-4.77,4.55l-2.38,20.81c-.43,2.82-3.04,5.64-5.85,5.64h-.43l-40.54-2.82c-3.25-.22-5.64-2.38-5.64-4.99v-.65l5.85-53.77c.65-6.5,6.5-10.84,13.22-10.84h1.3l121.84,9.32c11.71.87,23.41,8.67,23.41,21.46,0,5.2-7.37,59.4-71.54,120.54-1.08.87-3.9,2.6-7.37,2.6-.87,0-1.73,0-2.82-.43l-27.75-9.54Zm5.64-148.07c-3.04,0-5.64-1.95-5.64-4.55v-28.62c0-2.82,2.82-5.42,5.64-5.42h49.21c3.25,0,5.85,2.6,5.85,5.42v28.62c0,2.82-3.47,4.55-5.85,4.55h-49.21Zm76.53-1.08c-1.08.22-1.95.43-2.82.43-1.95,0-3.47-.87-4.34-2.6l-7.37-15.83c-.65-1.3-.87-2.38-.87-3.25,0-1.95,1.3-2.82,3.25-3.47l15.39-4.77c.65-.22,1.08-.22,1.52-.22,2.6,0,4.77,1.95,5.64,4.12l6.72,15.39c.43,1.08.65,1.95.65,2.6,0,1.95-1.52,3.25-4.55,4.12l-13.22,3.47Zm41.84-5.85c-1.08,1.3-2.17,1.95-3.47,1.95-1.08,0-2.38-.65-3.47-1.3l-16.26-12.14c-1.52-1.08-2.17-2.38-2.17-3.25,0-1.52,1.08-2.6,1.73-3.25l9.54-10.19c1.08-1.3,2.38-1.73,3.9-1.73,1.3,0,2.82.43,4.12,1.3l14.53,8.89.65.43c1.52.87,2.38,2.17,2.38,3.47,0,1.08-.65,2.38-1.73,3.69l-9.76,12.14Z"/>
        <path class="cls-4" d="m1082.03,478.68c-6.7,0-13.68,1.12-20.1,2.79l6.14,115.56c2.23.28,4.47.28,6.7.28,32.38,0,59.18-23.17,59.18-58.62,0-4.75-.28-60.01-51.92-60.01Z"/>
        <path class="cls-6" d="m250.42,297.3c-1.54-7.17-8.13-12.25-16.46-11.46-7.27,1.06-88.38,14.49-102.23,17.46-6.21,1.33-12.01,4.58-9.82,17.11,18.79,94.45,37.97,216.31,36.87,267.04-.77,26.66-24.45,46.75-55.04,53.32-3.82.82-7.17,1.54-11.09,1.88l-1.91.41c-6.21,1.33-12.46,7.18-13.2,15.34l-3.86,51.82c-.17,1.54.14,2.97.55,4.88,1.03,4.78,3.8,10.68,10.04,11.84,23.56,4.94,51.55,4.92,78.79-.93,62.6-13.45,122.56-57.83,121.66-148.12-.38-80.91-20.48-186.07-34.08-279.64l-.21-.96Z"/>
        <path class="cls-6" d="m337.03,346.35h100.6c6.03,0,10.92,4.9,10.92,10.92v355.5c0,6.03-4.9,10.92-10.92,10.92h-100.6c-6.03,0-10.92-4.9-10.92-10.92v-355.5c0-6.03,4.9-10.92,10.92-10.92Z"/>
        <path class="cls-6" d="m687.85,276.6c-2.73-9.56-11.83-11.38-29.59-11.38-76.47,0-158.4,40.51-158.4,112.43,0,22.3,8.19,47.79,26.86,76.02,24.58,38.24,32.77,51.89,32.77,66.91,0,28.68-33.68,45.06-64.64,45.06h-1.82c-2.73,0-9.56,2.28-9.56,9.1,0,.91,0,2.28.46,3.19l15.02,68.28c1.37,5.92,6.83,10.92,12.75,10.92,4.55.46,8.65.46,13.2.46,78.75,0,169.33-44.61,169.33-120.17,0-22.76-8.19-48.25-27.31-76.47-20.94-29.59-32.32-50.98-32.32-66.46,0-25.95,27.77-36.87,57.35-36.87h2.73c2.73,0,9.56-2.73,9.56-10.01,0-.91,0-2.28-.46-3.64l-15.93-67.37Z"/>
        <path class="cls-6" d="m946.34,639.4h-.91l-110.61,5.92-2.28-42.33h75.56c6.37,0,10.92-5.01,11.38-11.38l.91-69.64v-.91c0-5.92-5.46-10.47-10.92-10.47h-81.48l-2.28-39.15,106.06-5.46c5.46-.46,10.47-5.46,10.47-10.92v-.91l-3.64-79.2c-.46-5.46-5.46-10.47-10.92-10.47h-.91l-121.08,6.37h-1.82l-82.84,4.55c-5.46,0-10.47,5.01-10.47,10.47v.91l18.66,355.04c.46,5.46,5.01,10.47,10.47,10.47h.91l88.76-4.55c.46,0,1.37-.46,1.82-.46l118.35-6.37c6.37-.46,10.92-5.92,10.92-11.83l-3.19-79.2c0-5.46-5.01-10.47-10.92-10.47Z"/>
        <path class="cls-7" d="m1087.89,419.5c-16.47,0-32.94,2.51-47.45,7.26l-44.66,2.51c-3.63,0-6.42,3.35-6.42,6.98l10.89,204.6c.56,10.61,5.86,15.07,15.07,17.31,1.95.28,4.19.56,6.42,1.12,13.12,2.23,26.24,3.35,39.08,3.35,79.27,0,148.5-43.27,148.5-122.26,0-15.63-2.79-32.94-8.93-51.64-15.91-48.85-65.32-69.22-112.49-69.22Zm-13.12,177.81c-2.23,0-4.47,0-6.7-.28l-6.14-115.56c6.42-1.67,13.4-2.79,20.1-2.79,51.64,0,51.92,55.27,51.92,60.01,0,35.45-26.8,58.62-59.18,58.62Z"/>
        <path class="cls-7" d="m1361.7,523.68l-.52-.11-69.97-10.66-1.04-.22-47.89-7.19c-3.12-.65-6.58,1.63-7.22,4.75l-.11.52-31.28,205.16c-.39,3.18,1.63,6.58,4.75,7.22l.52.11,51.28,7.89c.26.05.83-.1,1.09-.05l68.4,10.34c3.7.49,6.94-2.09,7.64-5.47l7.54-45.65c.65-3.12-1.63-6.58-5.01-7.27l-.52-.11-63.93-9.69,3.7-24.47,43.19,8.93c3.64.75,6.84-1.57,7.85-5.16l8.75-39.7.11-.52c.7-3.38-1.89-6.63-5.01-7.27l-46.58-9.63,3.32-22.65,61.27,9.41c3.18.38,6.63-1.89,7.28-5.01l.11-.52,7.28-45.7c.39-3.18-1.89-6.63-5.01-7.28Z"/>
        <path class="cls-7" d="m1591.16,434.9l-46.34-15.07c-1.68-.56-3.07-.84-4.47-.84-3.35,0-5.58,1.95-6.98,5.3-4.19,10.33-43.27,114.72-51.36,130.91-1.4,2.51-2.23,3.63-3.35,3.63-.84,0-1.4-.84-2.23-2.79l-58.34-133.15c-.84-1.95-4.47-4.47-8.93-4.47-1.4,0-2.79.28-4.47.84l-51.08,21.77c-3.07,1.4-4.19,4.19-4.19,6.98,0,1.67.28,3.07.84,4.19l94.07,194c1.4,2.51,6.14,5.3,12,5.3h40.47c4.19,0,8.37-1.95,9.77-3.35,47.45-44.38,91.84-197.35,91.84-204.32,0-4.19-2.23-7.26-7.26-8.93Z"/>
        <path class="cls-1" d="m1454.52,321.04c-2.38,1.04-5.04-.16-6-2.34l-17.74-40.51-37.74,16.52c-2.38,1.04-4.95.04-6-2.34l-3.37-8.23c-.96-2.18-.04-4.95,2.34-6l37.54-16.43-17.73-40.51c-.96-2.18.16-5.04,2.34-6l9.53-4.17c2.38-1.04,4.95-.04,6,2.35l17.74,40.51,40.12-17.56c2.18-.96,4.64.33,5.51,2.32l3.45,8.43c.96,2.18-.05,4.75-2.43,5.8l-39.44,17.5,17.74,40.51c.96,2.18-.25,4.84-2.43,5.8l-9.45,4.37Z"/>
        <path class="cls-1" d="m1566.49,347.02c-2.12.43-4.08-1.01-4.48-2.96l-7.38-36.11-33.63,6.87c-2.12.43-4.04-.83-4.48-2.96l-1.31-7.29c-.4-1.95.83-4.04,2.96-4.48l33.45-6.84-7.38-36.11c-.4-1.95,1.01-4.08,2.96-4.48l8.5-1.74c2.12-.43,4.04.83,4.48,2.96l7.38,36.11,35.75-7.31c1.95-.4,3.72,1.08,4.09,2.85l1.34,7.47c.4,1.95-.87,3.87-2.99,4.3l-35.19,7.38,7.38,36.11c.4,1.95-1.05,3.9-2.99,4.3l-8.46,1.91Z"/>
        <path class="cls-1" d="m1165.83,390.46c-10.82-1.97-19.26-7.33-25.31-16.08-6.06-8.75-8.1-18.53-6.13-29.35,1.38-7.59,4.79-13.97,10.23-19.15l92.39-109.45,4.24-23.32c-3.61-.66-6.37-2.41-8.29-5.27-1.92-2.86-2.57-6.02-1.93-9.51l2.41-13.25c1.24-6.84,4.81-12.3,10.69-16.37,5.88-4.07,12.18-5.49,18.9-4.27l51.68,9.41c6.72,1.22,12.11,4.78,16.18,10.66,4.07,5.88,5.48,12.24,4.24,19.08l-2.41,13.25c-.63,3.48-2.36,6.22-5.16,8.22-2.81,2-6.01,2.66-9.62,2.01l-4.25,23.32,47.92,134.98c3.27,6.76,4.21,13.94,2.83,21.53-1.97,10.82-7.33,19.26-16.08,25.31-8.75,6.06-18.47,8.11-29.17,6.16l-153.37-27.91Zm-5.69-40.75c-.66,3.61,0,6.94,1.94,9.99,1.95,3.05,4.73,4.91,8.34,5.56l153.37,27.91c3.48.63,6.67-.13,9.58-2.31,2.9-2.17,4.68-5.06,5.34-8.67.43-2.36.05-4.87-1.14-7.53l-19.57-55.61-38.19,26.59-52.96-76.53-62.99,73.93c-2.05,2.07-3.29,4.29-3.72,6.65Zm122.79-96.4c-3.61-.66-6.86.1-9.76,2.27s-4.67,5.03-5.32,8.57c-.64,3.55.02,6.75,2.01,9.62,1.98,2.87,4.78,4.63,8.39,5.28,3.61.66,6.94,0,9.99-1.94,3.05-1.95,4.9-4.7,5.55-8.24.65-3.54-.1-6.86-2.24-9.95-2.14-3.09-5.01-4.96-8.62-5.62Z"/>
      </g>
    </g>
  </g>
</svg>